<?xml version="1.0" encoding="UTF-8"?>
<svg width="1200pt" height="1200pt" version="1.1" viewBox="0 0 1200 1200" xmlns="http://www.w3.org/2000/svg">
 <path d="m288 73.602s-25.602 332 151.2 520.8c0 0 4.8008 4.8008 0 10.398-5.6016 5.6016-164.8 172.8-152 522.4h-92s-32-267.2 204.8-520.8c0 0 6.3984-7.1992 0.80078-12 0 0-219.2-197.6-205.6-520.8z" fill="#fff"/>
 <path d="m385.6 72.801s-16.801 287.2 104.8 521.6c0 0 1.6016 8 0 10.398-4.8008 6.3984-121.6 234.4-106.4 521.6l-76.801 0.80078s-26.398-235.2 144.8-521.6c0 0 6.3984-7.1992 0.80078-12 0 0-150.4-232.8-146.4-521.6h79.195z" fill="#fff"/>
 <path d="m492.8 72.801s-17.602 269.6 43.199 521.6c0 0 1.6016 8 0 10.398-4.8008 6.3984-52.801 244.8-47.199 522.4h-78.402s-1.6016-321.6 95.199-521.6c0 0 3.1992-5.6016 0.80078-12 0 0-80-138.4-93.602-520.8z" fill="#fff"/>
 <path d="m588.8 72.801-0.80078 1054.4h-78.398s2.3984-302.4 48-520.8c0 0 3.1992-5.6016 0.80078-12 0 0-33.602-130.4-45.602-521.6z" fill="#fff"/>
 <path d="m172.8 73.602s-28 307.2 208.8 521.6c0 0 4.8008 4.8008 0 10.398-5.6016 5.6016-221.6 172-208.8 521.6h-92s-18.398-353.6 262.4-520c0 0 6.3984-7.1992 0.80078-12 0 0-249.6-120.8-263.2-521.6z" fill="#fff"/>
 <path d="m912 73.602s25.602 332-151.2 520.8c0 0-4.8008 4.8008 0 10.398 5.6016 5.6016 164.8 172.8 152 522.4h92s32-267.2-204.8-520.8c0 0-6.3984-7.1992-0.80078-12 0 0 219.2-197.6 205.6-520.8z" fill="#fff"/>
 <path d="m814.4 72.801s16.801 287.2-104.8 521.6c0 0-1.6016 8 0 10.398 4.8008 6.3984 121.6 234.4 106.4 521.6l76.801 0.80078s26.398-235.2-144.8-521.6c0 0-6.3984-7.1992-0.80078-12 0 0 150.4-232.8 146.4-521.6h-79.195z" fill="#fff"/>
 <path d="m707.2 72.801s17.602 269.6-43.199 521.6c0 0-1.6016 8 0 10.398 4.8008 6.3984 52.801 244.8 47.199 522.4h77.602s1.6016-321.6-95.199-521.6c0 0-3.1992-5.6016-0.80078-12 0 0 80-138.4 93.602-520.8z" fill="#fff"/>
 <path d="m611.2 72.801 1.6016 1054.4h77.602s-2.3984-302.4-48-520.8c0 0-3.1992-5.6016-0.80078-12 0 0 33.602-130.4 45.602-521.6z" fill="#fff"/>
 <path d="m1027.2 73.602s28 307.2-208.8 521.6c0 0-4.8008 4.8008 0 10.398 5.6016 5.6016 221.6 172 208.8 521.6h92s18.398-353.6-262.4-520c0 0-6.3984-7.1992-0.80078-12 0 0 249.6-120.8 263.2-521.6z" fill="#fff"/>
</svg>
